<svg width="12" height="12" viewBox="0 0 12 12" version="1.1" xmlns="http://www.w3.org/2000/svg">
  <g fill="#9B9B9B" fill-rule="nonzero" stroke="none" stroke-width="1">
    <path d="M9 3c-.276 0-.552.069-.69.276A1 1 0 0 0 9 5c.276 0 .552-.069.69-.276a1 1 0 0 0 0-1.448C9.483 3.069 9.276 3 9 3z"/>
    <path d="M9.844 0H6.683c-.79 0-1.725.361-2.228.94L.647 4.77c-.863.868-.863 2.241 0 3.036L4.24 11.35c.359.434.934.651 1.509.651.574 0 1.15-.217 1.508-.65l3.809-3.832c.575-.578.934-1.446.934-2.24v-3.11A2.168 2.168 0 0 0 9.844 0zm.719 5.277c0 .362-.216.94-.503 1.229L6.25 10.337a.774.774 0 0 1-.502.217.774.774 0 0 1-.503-.217L1.653 6.795a.702.702 0 0 1 0-1.012L5.46 1.952c.288-.29.862-.506 1.222-.506h3.161c.36 0 .719.361.719.723v3.108z"/>
  </g>
</svg>
